<svg xmlns="http://www.w3.org/2000/svg" xmlns:xlink="http://www.w3.org/1999/xlink" version="1.1" width="1000" height="1000" viewBox="0 0 1000 1000" xml:space="preserve">
<desc>Created with Fabric.js 3.5.0</desc>
<defs>
</defs>
<rect x="0" y="0" width="100%" height="100%" fill="#ffffff"/>
<g transform="matrix(5.8471 0 0 5.8471 500.0033 500.0033)" id="763576">
<path style="stroke: none; stroke-width: 1; stroke-dasharray: none; stroke-linecap: butt; stroke-dashoffset: 0; stroke-linejoin: miter; stroke-miterlimit: 4; is-custom-font: none; font-file-url: none; fill: rgb(0,119,181); fill-rule: nonzero; opacity: 1;" vector-effect="non-scaling-stroke" transform=" translate(-128.85, -128.95)" d="M 61.8 179.7 c 0 -33.9 0 -67.8 0 -101.6 c 0.1 -0.3 0.2 -0.7 0.3 -1 c 1.2 -6.2 4.5 -10.7 10.2 -13.4 c 1.8 -0.9 3.9 -1.2 5.8 -1.8 c 33.9 0 67.8 0 101.6 0 c 0.2 0.1 0.4 0.2 0.6 0.2 c 9.4 1.6 15.6 9 15.6 18.4 c 0 32.3 0 64.6 0 96.9 c 0 10.5 -8 18.5 -18.6 18.6 c -4.7 0 -9.3 0 -14 0 c -27.7 0 -55.3 0 -83 0 c -8.5 0 -15.6 -5.4 -17.9 -13.5 C 62.2 181.6 62.1 180.6 61.8 179.7 z M 133.3 121.1 c 0 -1.2 0 -2.3 0 -3.5 c -0.1 -2 -1 -3 -3 -3 c -3.9 0 -7.9 0 -11.8 0 c -2 0 -2.9 1 -2.9 3 c 0 16.7 0 33.3 0 50 c 0 2.2 1 3.1 3.1 3.1 c 3.6 0 7.2 0 10.9 0 c 2.9 0 3.7 -0.8 3.7 -3.7 c 0 -8.4 0 -16.8 0 -25.1 c 0 -3.2 0.7 -6.2 2.5 -9 c 2.2 -3.3 5.3 -4.3 9.1 -3.8 c 3.4 0.5 5.7 2.5 6.6 5.8 c 0.7 2.7 1 5.6 1 8.4 c 0.1 8.1 0 16.1 0 24.2 c 0 2.4 0.9 3.3 3.2 3.3 c 3.9 0 7.8 0 11.7 0 c 2.3 0 3.3 -0.9 3.3 -3.2 c 0 -9.2 0.1 -18.3 -0.1 -27.5 c -0.1 -3.9 -0.5 -7.8 -1.3 -11.5 c -1.5 -6.8 -5.3 -11.9 -12.4 -13.8 c -2.1 -0.5 -4.3 -0.8 -6.5 -0.9 C 143.6 113.7 137.6 115.3 133.3 121.1 z M 89.9 142.7 c 0 8.2 0 16.5 0 24.7 c 0 2.3 1 3.4 3.3 3.4 c 3.6 0 7.2 0 10.9 0 c 2.5 0 3.5 -1 3.5 -3.5 c 0 -16.4 0 -32.8 0 -49.2 c 0 -2.4 -1 -3.4 -3.4 -3.4 c -3.6 0 -7.2 0 -10.7 0 c -2.6 0 -3.5 1 -3.5 3.6 C 89.9 126.4 89.9 134.5 89.9 142.7 z M 110.1 98.6 c 0.1 -6.2 -4.9 -11.4 -11.1 -11.6 c -6.4 -0.1 -11.6 4.9 -11.7 11.2 c -0.1 6.3 4.9 11.5 11.2 11.6 C 104.9 109.9 110 105 110.1 98.6 z" stroke-linecap="round"/>
</g>
</svg>